{"title":"Ghostbusters.2016.WEBRip.480p.x264.AAC-CDRiPD","uid":15897155,"size":473342484,"categoryP":"video","categoryS":"movies","magnet":"?xt=urn:btih:1c2e982112e521cfa016893bd9c6a019c790bd9f&amp;dn=Ghostbusters.2016.WEBRip.480p.x264.AAC-CDRiPD&amp;tr=udp%3A%2F%2Ftracker.leechers-paradise.org%3A6969&amp;tr=udp%3A%2F%2Fzer0day.ch%3A1337&amp;tr=udp%3A%2F%2Fopen.demonii.com%3A1337&amp;tr=udp%3A%2F%2Ftracker.coppersurfer.tk%3A6969&amp;tr=udp%3A%2F%2Fexodus.desync.com%3A6969","seeders":3,"leechers":3,"uploader":"CDRiPD","files":3,"time":1474972088,"description":"Ghostbusters.2016.WEBRip.480p.x264.AAC-CDRiPD\r\n\r\n\r\n\r\nFormat                                   : MPEG-4\r\nFormat profile                           : Base Media\r\nCodec ID                                 : isom\r\nFile size                                : 451 MiB\r\nDuration                                 : 1h 56mn\r\nOverall bit rate mode                    : Variable\r\nOverall bit rate                         : 541 Kbps\r\nVideo\r\nID                                       : 1\r\nFormat                                   : AVC\r\nFormat/Info                              : Advanced Video Codec\r\nFormat profile                           :   \r\nFormat settings, CABAC                   : Yes\r\nFormat settings, ReFrames                : 4 frames\r\nCodec ID                                 : avc1\r\nCodec ID/Info                            : Advanced Video Coding\r\nDuration                                 : 1h 56mn\r\nBit rate                                 : 498 Kbps\r\nMaximum bit rate                         : 3 290 Kbps\r\nWidth                                    : 720 pixels\r\nHeight                                   : 304 pixels\r\nDisplay aspect ratio                     : 2.35:1\r\nFrame rate mode                          : Constant\r\nFrame rate                               : 23.976 fps\r\nColor space                              : YUV\r\nChroma subsampling                       : 4:2:0\r\nBit depth                                : 8 bits\r\nScan type                                : Progressive\r\nBits/(Pixel*Frame)                       : 0.095\r\nStream size                              : 415 MiB (92%)\r\nWriting library                          : x264 core 148 r2705 3f5ed56\r\n\r\nAudio\r\nID                                       : 2\r\nFormat                                   : AAC\r\nFormat/Info                              : Advanced Audio Codec\r\nFormat profile                           : HE-AAC / LC\r\nCodec ID                                 : 40\r\nDuration                                 : 1h 56mn\r\nBit rate mode                            : Variable\r\nBit rate                                 : 40.0 Kbps\r\nMaximum bit rate                         : 61.0 Kbps\r\nChannel(s)                               : 2 channels\r\nChannel positions                        : Front: L R\r\nSampling rate                            : 44.1 KHz / 22.05 KHz\r\nCompression mode                         : Lossy\r\nStream size                              : 33.4 MiB (7%)\r\nLanguage                                 : English\r\n\r\n \nhttps://ititli.com/XaS \nhttps://ititli.com/XaZ \nhttps://ititli.com/Xac \nhttps://ititli.com/Xai \nhttps://ititli.com/Xap \nhttps://ititli.com/XaD \nhttps://ititli.com/Xaa \nhttps://ititli.com/Xab \nhttps://ititli.com/Xaz \nhttps://ititli.com/XaI \nhttps://ititli.com/XaO \nhttps://ititli.com/Xb9 \nhttps://ititli.com/XbX \nhttps://ititli.com/Xbq","torrent":{"xt":"urn:btih:1c2e982112e521cfa016893bd9c6a019c790bd9f","amp;dn":"Ghostbusters.2016.WEBRip.480p.x264.AAC-CDRiPD","amp;tr":["udp%3A%2F%2Ftracker.leechers-paradise.org%3A6969","udp%3A%2F%2Fzer0day.ch%3A1337","udp%3A%2F%2Fopen.demonii.com%3A1337","udp%3A%2F%2Ftracker.coppersurfer.tk%3A6969","udp%3A%2F%2Fexodus.desync.com%3A6969"],"infoHash":"1c2e982112e521cfa016893bd9c6a019c790bd9f","infoHashBuffer":{"type":"Buffer","data":[28,46,152,33,18,229,33,207,160,22,137,59,217,198,160,25,199,144,189,159]},"announce":[],"urlList":[]}}